<svg width="13" height="13" viewBox="0 0 13 13" fill="none" xmlns="http://www.w3.org/2000/svg">
<g clip-path="url(#clip0_76_1899)">
<path d="M6.12263 12.2462C9.50406 12.2462 12.2453 9.50503 12.2453 6.1236C12.2453 2.74217 9.50406 0.000976562 6.12263 0.000976562C2.74119 0.000976562 0 2.74217 0 6.1236C0 9.50503 2.74119 12.2462 6.12263 12.2462Z" fill="#1769FF"/>
<path d="M4.32602 3.34863C4.59003 3.34863 4.83101 3.37214 5.04898 3.41868C5.26695 3.46521 5.45307 3.54162 5.60834 3.64791C5.76361 3.7542 5.88411 3.89526 5.96982 4.07159C6.05554 4.24792 6.09815 4.4654 6.09815 4.72451C6.09815 5.00419 6.03448 5.23734 5.90762 5.42396C5.78076 5.61058 5.59267 5.7634 5.34434 5.88242C5.68622 5.98087 5.94141 6.15329 6.10991 6.39917C6.2784 6.64505 6.36265 6.94188 6.36265 7.28915C6.36265 7.56884 6.30828 7.81129 6.19954 8.01603C6.09081 8.22077 5.94435 8.3878 5.76018 8.51711C5.57602 8.64691 5.36638 8.74242 5.13078 8.80463C4.89371 8.86683 4.6493 8.89818 4.40439 8.89769H1.71484V3.34863H4.32602ZM4.17075 5.59441C4.38823 5.59441 4.56701 5.54249 4.70709 5.43914C4.84718 5.3353 4.91722 5.1673 4.91673 4.93415C4.91673 4.80484 4.89322 4.69855 4.84669 4.61577C4.80016 4.53299 4.73795 4.46785 4.66007 4.42132C4.58219 4.37478 4.49305 4.34246 4.39215 4.32433C4.28831 4.30621 4.183 4.29691 4.0772 4.29739H2.93545V5.59539L4.17075 5.59441ZM4.24079 7.94893C4.3559 7.94942 4.47052 7.93766 4.58268 7.91415C4.69142 7.89064 4.78742 7.85195 4.8702 7.79758C4.95298 7.74321 5.0191 7.66925 5.06857 7.57618C5.11755 7.48312 5.14253 7.36361 5.14253 7.21862C5.14253 6.93404 5.06221 6.73028 4.90155 6.60881C4.74089 6.48685 4.52831 6.42611 4.2643 6.42611H2.93545V7.94942L4.24079 7.94893ZM7.89772 7.83235C8.06327 7.99301 8.30181 8.07334 8.61284 8.07334C8.8357 8.07334 9.02722 8.0175 9.18787 7.90632C9.34853 7.79513 9.44698 7.67708 9.48323 7.55267H10.4545C10.2993 8.03465 10.0607 8.37898 9.7394 8.58617C9.41809 8.79336 9.02967 8.8972 8.57365 8.8972C8.25773 8.8972 7.97266 8.84675 7.71894 8.74585C7.46521 8.64495 7.25019 8.50095 7.07385 8.31433C6.89752 8.12771 6.76136 7.90534 6.66584 7.64623C6.57033 7.38712 6.52233 7.10205 6.52233 6.79151C6.52233 6.49125 6.57131 6.21157 6.66976 5.95246C6.76821 5.69335 6.9083 5.46951 7.08953 5.28044C7.27076 5.09138 7.48726 4.94247 7.73853 4.83374C7.9898 4.725 8.2685 4.67063 8.57414 4.67063C8.91603 4.67063 9.21384 4.73675 9.46805 4.869C9.72177 5.00125 9.93043 5.17856 10.0935 5.40143C10.2566 5.62429 10.3747 5.87801 10.4472 6.16308C10.5197 6.44815 10.5456 6.74596 10.5251 7.05698H7.62636C7.64155 7.41308 7.73216 7.67219 7.89772 7.83235ZM9.14526 5.71882C9.01301 5.57384 8.81219 5.50135 8.5428 5.50135C8.36646 5.50135 8.22001 5.53123 8.10393 5.59049C7.98735 5.65025 7.89429 5.72372 7.82424 5.81189C7.7542 5.90005 7.70522 5.99312 7.67681 6.09157C7.6484 6.19002 7.63126 6.27819 7.62636 6.35558H9.42151C9.3691 6.07639 9.27702 5.86381 9.14526 5.71882ZM7.43729 3.63027H9.68013V4.25233H7.43729V3.63027Z" fill="white"/>
</g>
<defs>
<clipPath id="clip0_76_1899">
<rect width="12.2453" height="12.2453" fill="white"/>
</clipPath>
</defs>
</svg>
