<svg width="13" height="13" viewBox="0 0 13 13" fill="none" xmlns="http://www.w3.org/2000/svg">
<g clip-path="url(#clip0_76_1894)">
<path d="M6.12288 0.407715C9.27986 0.407715 11.8341 2.962 11.8341 6.11419C11.8341 9.26639 9.27986 11.8255 6.12288 11.8255C2.9659 11.8255 0.411621 9.27117 0.411621 6.11898C0.411621 2.96678 2.9659 0.407715 6.12288 0.407715Z" fill="#E74D89"/>
<path d="M6.12263 12.2309C2.74561 12.2309 0 9.49007 0 6.11784C0 2.74083 2.74561 0 6.12263 0C9.49964 0 12.2453 2.74083 12.2453 6.11306C12.2453 9.48529 9.49964 12.2309 6.12263 12.2309ZM11.2838 6.95014C11.1068 6.89274 9.66705 6.46702 8.02638 6.72532C8.71039 8.60038 8.98782 10.131 9.04044 10.4467C10.2171 9.65748 11.0542 8.40426 11.2838 6.95014ZM8.16509 10.9298C8.08856 10.4706 7.78243 8.87302 7.05059 6.96927C7.04102 6.97405 7.02667 6.97884 7.0171 6.97884C4.06581 8.00725 3.0087 10.0497 2.91303 10.241C3.79794 10.9298 4.91245 11.3412 6.12263 11.3412C6.8449 11.346 7.53848 11.1977 8.16509 10.9298ZM2.23858 9.61443C2.35817 9.41354 3.79316 7.04102 6.49094 6.16567C6.55791 6.14176 6.62966 6.12262 6.69662 6.10349C6.56747 5.80693 6.42397 5.51036 6.27091 5.21858C3.65923 5.99826 1.12408 5.96478 0.894477 5.95999C0.894477 6.01261 0.889694 6.06523 0.889694 6.11784C0.894477 7.46195 1.40151 8.68647 2.23858 9.61443ZM1.00449 5.05117C1.23888 5.05595 3.39136 5.06552 5.84041 4.41499C4.97463 2.87476 4.03711 1.58327 3.90317 1.39672C2.4347 2.08552 1.34411 3.43441 1.00449 5.05117ZM4.8981 1.04276C5.0416 1.23409 5.99348 2.52558 6.84969 4.09929C8.71039 3.40093 9.49485 2.3486 9.59052 2.21467C8.66734 1.39672 7.45238 0.899261 6.12263 0.899261C5.70169 0.899261 5.29033 0.951877 4.8981 1.04276ZM10.1693 2.81736C10.0593 2.96565 9.18394 4.08972 7.25148 4.87897C7.37107 5.1277 7.49065 5.38121 7.60067 5.63473C7.63893 5.72561 7.6772 5.81649 7.71546 5.90259C9.45659 5.68256 11.1834 6.03653 11.3556 6.07001C11.3412 4.8407 10.9011 3.70706 10.1693 2.81736Z" fill="#B2215A"/>
</g>
<defs>
<clipPath id="clip0_76_1894">
<rect width="12.2453" height="12.2453" fill="white"/>
</clipPath>
</defs>
</svg>
