<svg width="13" height="13" viewBox="0 0 13 13" fill="none" xmlns="http://www.w3.org/2000/svg">
<path fill-rule="evenodd" clip-rule="evenodd" d="M6.15673 1.02637C4.76319 1.02637 4.58874 1.03252 4.04128 1.05715C3.49536 1.08229 3.12234 1.169 2.79602 1.29574C2.45352 1.42443 2.14324 1.62632 1.88684 1.88732C1.62583 2.14373 1.42394 2.45401 1.29525 2.79651C1.16852 3.12283 1.08181 3.49585 1.05666 4.04177C1.03152 4.58923 1.02588 4.76368 1.02588 6.15722C1.02588 7.55076 1.03152 7.7252 1.05666 8.27267C1.08181 8.81859 1.16852 9.1916 1.29525 9.51792C1.42394 9.86042 1.62583 10.1707 1.88684 10.4271C2.14324 10.6881 2.45352 10.89 2.79602 11.0187C3.12234 11.1454 3.49536 11.2321 4.04128 11.2573C4.58874 11.2819 4.76319 11.2881 6.15673 11.2881C7.55027 11.2881 7.72472 11.2819 8.27218 11.2573C8.8181 11.2321 9.19111 11.1454 9.51743 11.0187C9.85993 10.89 10.1702 10.6881 10.4266 10.4271C10.6876 10.1707 10.8895 9.86042 11.0182 9.51792C11.1449 9.1916 11.2317 8.81859 11.2568 8.27267C11.2814 7.7252 11.2876 7.55076 11.2876 6.15722C11.2876 4.76368 11.2814 4.58923 11.2568 4.04177C11.2317 3.49585 11.1449 3.12283 11.0182 2.79651C10.8895 2.45401 10.6876 2.14373 10.4266 1.88732C10.1702 1.62632 9.85993 1.42443 9.51743 1.29574C9.19111 1.169 8.8181 1.08229 8.27218 1.05715C7.72472 1.03252 7.55027 1.02637 6.15673 1.02637ZM6.15673 1.95095C7.52667 1.95095 7.6888 1.95608 8.22959 1.98071C8.73036 2.00379 9.00178 2.08691 9.1829 2.15721C9.422 2.25059 9.59337 2.36193 9.77295 2.54099C9.95253 2.72057 10.0634 2.89194 10.1567 3.13104C10.2265 3.31216 10.3107 3.58358 10.3332 4.08384C10.3579 4.62514 10.363 4.78677 10.363 6.15722C10.363 7.52715 10.3579 7.68929 10.3332 8.23008C10.3102 8.73085 10.2265 9.00227 10.1567 9.18339C10.0745 9.40627 9.94334 9.60789 9.77295 9.77344C9.59337 9.95302 9.422 10.0638 9.1829 10.1572C9.00178 10.227 8.73036 10.3112 8.2301 10.3337C7.68931 10.3584 7.52718 10.3635 6.15673 10.3635C4.78679 10.3635 4.62414 10.3584 4.08387 10.3337C3.58309 10.3106 3.31167 10.227 3.13055 10.1572C2.90768 10.075 2.70606 9.94383 2.54051 9.77344C2.37012 9.60789 2.23898 9.40627 2.15672 9.18339C2.08643 9.00227 2.00279 8.73085 1.98022 8.23059C1.95559 7.68929 1.95046 7.52767 1.95046 6.15722C1.95046 4.78728 1.95559 4.62514 1.98022 4.08435C2.00331 3.58358 2.08643 3.31216 2.15672 3.13104C2.2501 2.89194 2.36144 2.72057 2.54051 2.54099C2.72009 2.36141 2.89146 2.25059 3.13055 2.15721C3.31167 2.08691 3.58309 2.00328 4.08335 1.98071C4.62466 1.95608 4.78628 1.95095 6.15673 1.95095ZM6.15673 7.86733C5.70318 7.86733 5.2682 7.68716 4.9475 7.36645C4.62679 7.04574 4.44662 6.61077 4.44662 6.15722C4.44662 5.70367 4.62679 5.26869 4.9475 4.94798C5.2682 4.62728 5.70318 4.4471 6.15673 4.4471C6.61028 4.4471 7.04525 4.62728 7.36596 4.94798C7.68667 5.26869 7.86684 5.70367 7.86684 6.15722C7.86684 6.61077 7.68667 7.04574 7.36596 7.36645C7.04525 7.68716 6.61028 7.86733 6.15673 7.86733ZM6.15673 3.52253C5.81074 3.52253 5.46813 3.59067 5.14848 3.72308C4.82882 3.85548 4.53837 4.04956 4.29372 4.29421C4.04907 4.53886 3.855 4.82931 3.72259 5.14896C3.59019 5.46862 3.52204 5.81122 3.52204 6.15722C3.52204 6.50321 3.59019 6.84581 3.72259 7.16547C3.855 7.48512 4.04907 7.77557 4.29372 8.02022C4.53837 8.26488 4.82882 8.45895 5.14848 8.59135C5.46813 8.72376 5.81074 8.79191 6.15673 8.79191C6.85549 8.79191 7.52564 8.51433 8.01974 8.02022C8.51384 7.52612 8.79142 6.85598 8.79142 6.15722C8.79142 5.45845 8.51384 4.78831 8.01974 4.29421C7.52564 3.80011 6.85549 3.52253 6.15673 3.52253ZM9.51128 3.41837C9.51128 3.49922 9.49535 3.57929 9.46441 3.65399C9.43347 3.72869 9.38812 3.79656 9.33094 3.85374C9.27377 3.91091 9.2059 3.95626 9.1312 3.9872C9.05649 4.01815 8.97643 4.03407 8.89558 4.03407C8.81472 4.03407 8.73466 4.01815 8.65996 3.9872C8.58526 3.95626 8.51738 3.91091 8.46021 3.85374C8.40304 3.79656 8.35768 3.72869 8.32674 3.65399C8.2958 3.57929 8.27987 3.49922 8.27987 3.41837C8.27987 3.25507 8.34474 3.09847 8.46021 2.983C8.57568 2.86754 8.73228 2.80267 8.89558 2.80267C9.05887 2.80267 9.21548 2.86754 9.33094 2.983C9.44641 3.09847 9.51128 3.25507 9.51128 3.41837Z" fill="white"/>
</svg>
