<svg width="13" height="13" viewBox="0 0 13 13" fill="none" xmlns="http://www.w3.org/2000/svg">
<path d="M6.17748 1.02639C3.37603 1.02639 1.0928 3.30962 1.0928 6.11107C1.0928 7.00897 1.32882 7.88121 1.77008 8.65084L1.05176 11.2881L3.74545 10.58C4.48943 10.9854 5.32576 11.2009 6.17748 11.2009C8.97892 11.2009 11.2621 8.91764 11.2621 6.1162C11.2621 4.75652 10.7337 3.47894 9.7742 2.51947C9.30374 2.04441 8.74343 1.66773 8.12592 1.41139C7.50842 1.15506 6.84607 1.02418 6.17748 1.02639ZM6.18261 1.88325C7.3114 1.88325 8.36835 2.3245 9.16876 3.12491C9.56147 3.51769 9.87283 3.98408 10.085 4.49737C10.2972 5.01067 10.406 5.56078 10.4053 6.1162C10.4053 8.4456 8.50688 10.3389 6.17748 10.3389C5.41811 10.3389 4.67414 10.1388 4.02765 9.74884L3.87373 9.66161L2.2729 10.0823L2.69876 8.52257L2.59614 8.35838C2.17262 7.68542 1.94846 6.90621 1.94966 6.11107C1.95479 3.78166 3.84807 1.88325 6.18261 1.88325ZM4.37655 3.76114C4.29445 3.76114 4.15592 3.79192 4.03791 3.92019C3.92503 4.04847 3.59153 4.36145 3.59153 4.98228C3.59153 5.60824 4.04817 6.20855 4.10461 6.29578C4.17645 6.383 5.00764 7.66571 6.28522 8.20958C6.58794 8.34812 6.82396 8.42508 7.00867 8.48152C7.31139 8.57901 7.58846 8.56361 7.80909 8.53283C8.05537 8.49691 8.55819 8.22498 8.66594 7.92739C8.77369 7.6298 8.77369 7.37839 8.7429 7.32195C8.70699 7.27064 8.62489 7.23985 8.49662 7.18341C8.36835 7.11158 7.74239 6.80373 7.62951 6.76268C7.5115 6.72164 7.43967 6.70111 7.34218 6.82425C7.26009 6.95253 7.01381 7.23985 6.94197 7.32195C6.86501 7.40917 6.79318 7.41943 6.67004 7.35786C6.53664 7.29116 6.12617 7.15776 5.64387 6.72677C5.26419 6.38813 5.01277 5.97253 4.93581 5.84426C4.87424 5.72112 4.93068 5.64416 4.99225 5.58772C5.04869 5.53128 5.13078 5.43893 5.18209 5.36196C5.24879 5.29013 5.26932 5.23369 5.31036 5.1516C5.35141 5.06437 5.33089 4.99254 5.3001 4.93097C5.26932 4.87453 5.01277 4.23831 4.90503 3.9869C4.80241 3.74061 4.69979 3.7714 4.6177 3.76627C4.54587 3.76627 4.46377 3.76114 4.37655 3.76114Z" fill="white"/>
</svg>
