<svg width="13" height="13" viewBox="0 0 13 13" fill="none" xmlns="http://www.w3.org/2000/svg">
<g clip-path="url(#clip0_76_1904)">
<path d="M11.3383 0.000488281H0.903853C0.405624 0.000488281 0 0.39578 0 0.882529V11.3614C0 11.8493 0.405624 12.2454 0.903853 12.2454H11.3391C11.8385 12.2454 12.2453 11.8493 12.2453 11.3614V0.882529C12.2453 0.39578 11.8385 0.000488281 11.3383 0.000488281Z" fill="#0177B5"/>
<path d="M1.81642 4.59135H3.63598V10.4346H1.81642V4.59135ZM2.72486 1.68311C3.30536 1.68311 3.77719 2.15493 3.77719 2.73543C3.77719 3.31593 3.30536 3.78891 2.72524 3.78891C2.446 3.7883 2.17835 3.67713 1.98086 3.4797C1.78336 3.28228 1.67209 3.01468 1.67139 2.73543C1.67139 2.59714 1.69864 2.46021 1.7516 2.33246C1.80456 2.20471 1.88217 2.08865 1.98001 1.99092C2.07785 1.89319 2.19399 1.8157 2.3218 1.76288C2.44961 1.71006 2.58657 1.68296 2.72486 1.68311ZM4.77211 4.59135H6.514V5.38997H6.53811C6.78072 4.93078 7.37308 4.44632 8.2601 4.44632C10.0992 4.44632 10.4386 5.65669 10.4386 7.22982V10.435H8.62363V7.59259C8.62363 6.91527 8.61138 6.0428 7.67998 6.0428C6.7348 6.0428 6.58939 6.78134 6.58939 7.54284V10.4335H4.77479V4.59021L4.77211 4.59135Z" fill="white"/>
</g>
<defs>
<clipPath id="clip0_76_1904">
<rect width="12.2453" height="12.2453" fill="white"/>
</clipPath>
</defs>
</svg>
